<?xml version="1.0" encoding="UTF-8"?>
<svg id="Ebene_1" xmlns="http://www.w3.org/2000/svg" version="1.1" viewBox="0 0 399.09 256.29">
  <!-- Generator: Adobe Illustrator 30.0.0, SVG Export Plug-In . SVG Version: 2.1.1 Build 123)  -->
  <defs>
    <style>
      .st0 {
        fill: #95c11f;
      }

      .st1, .st2 {
        fill: #1d1d1b;
      }

      .st2 {
        font-family: RextonRegularRegular, 'Rexton Regular';
        font-size: 10.03px;
      }
    </style>
  </defs>
  <g>
    <path class="st1" d="M75,237.34h-3.94v-23.17l18.63,15.72v-15.09h3.91v23.31l-18.6-15.72v14.95Z"/>
    <path class="st1" d="M130.22,233.51v3.82h-21.1v-22.54h21.1v3.82h-17.16v5.58h11.58v3.74h-11.58v5.58h17.16Z"/>
    <path class="st1" d="M152.73,237.34v-18.68h-9.29v-3.85h22.51v3.85h-9.29v18.68h-3.94Z"/>
    <path class="st1" d="M183.69,214.8v22.54h-3.94v-22.54h3.94Z"/>
    <path class="st1" d="M201.77,234.15c-2.47-2.27-3.71-4.94-3.71-8.08s1.24-5.81,3.71-8.08c2.44-2.16,5.38-3.22,8.74-3.22,2.13,0,4.14.46,6.01,1.41,1.9.92,3.42,2.21,4.57,3.91l-3.22,2.24c-1.58-2.33-4.37-3.71-7.36-3.71-2.36,0-4.37.72-6.04,2.18-1.64,1.47-2.47,3.22-2.47,5.26s.83,3.79,2.47,5.26c1.67,1.47,3.68,2.18,6.04,2.18,2.99,0,5.81-1.41,7.39-3.74l3.22,2.21c-1.15,1.7-2.67,3.02-4.57,3.97-1.87.95-3.88,1.41-6.04,1.41-3.36,0-6.3-1.06-8.74-3.22Z"/>
    <path class="st1" d="M239.66,233.2l-2.13,4.14h-4.4l11.73-23.51,12.13,23.51h-4.43l-2.21-4.14h-10.69ZM244.92,221.9l-3.74,7.85h7.59l-3.85-7.85Z"/>
    <path class="st1" d="M287.76,237.34l-7.68-8.16h-5.95v8.16h-3.94v-22.54h14.69c1.98,0,3.71.72,5.12,2.13,1.41,1.41,2.13,3.08,2.13,5.06s-.66,3.59-2.01,4.94c-1.32,1.35-2.99,2.07-5,2.16l7.73,8.25h-5.09ZM274.13,225.38h10.58c.98,0,1.81-.35,2.47-1.01.66-.66,1.01-1.47,1.01-2.41s-.35-1.75-1.01-2.41-1.49-1.01-2.47-1.01h-10.58v6.84Z"/>
    <path class="st1" d="M328.03,233.51v3.82h-21.1v-22.54h21.1v3.82h-17.16v5.58h11.58v3.74h-11.58v5.58h17.16Z"/>
  </g>
  <text class="st2" transform="translate(71.06 249.8)"><tspan x="0" y="0">IHR ONLINE SHOP - IHR ERFOLG</tspan></text>
  <g>
    <polygon class="st1" points="155.08 129.7 5.95 3.82 5.95 196.6 38.71 196.6 38.71 72.22 193.47 203.06 193.47 162.16 160.94 134.65 155.08 129.7"/>
    <polygon class="st0" points="160.94 108.84 193.47 136.35 193.47 9.08 160.94 9.08 160.94 108.84"/>
    <path d="M254.89,146.61c-13.63-12.2-20.57-26.79-20.57-43.77s6.94-31.57,20.57-43.77c13.87-12.2,30.62-18.18,50.23-18.18,24.87,0,48.08,11.48,61.23,30.85l26.79-18.66c-9.57-14.11-22.24-24.88-38.03-32.53-15.55-7.89-32.29-11.72-49.99-11.72-27.98,0-52.38,8.85-72.71,26.79-20.57,18.9-30.85,41.14-30.85,67.21s10.28,48.32,30.85,67.21c18.45,16.28,40.26,25.05,65.06,26.54v-32.12c-16.35-1.38-30.54-7.28-42.57-17.85Z"/>
    <circle class="st0" cx="357.21" cy="180.66" r="16.18"/>
  </g>
</svg>